:FULLY-SPECIFIED
:FORCE-ALL-JOINTS-BE-3DOF
:DEGREES
747
root 4.16879 18.027 13.4499 -163.946 -13.368 -169.652
lfemur -23.6166 -9.14054 -6.37854
ltibia 26.6809 -0 0
lfoot -8.5187 -7.00431 -0.357688
ltoes 12.8291 -0 0
rfemur -25.5405 -29.1069 -0.520662
rtibia 113.776 -0 0
rfoot 22.8095 4.44852 1.45119
rtoes 19.8357 -0 0
lowerback 1.08643 7.36879 0.918713
upperback -2.22479 9.83052 -1.24773
thorax -2.5232 4.87381 -2.07964
lowerneck -7.51163 -7.67719 -1.00186
upperneck -1.87267 -10.2818 3.30174
head 0.892564 -5.14102 0.859487
lclavicle -5.01635e-14 -3.61647e-14 -1.95419e-30
lhumerus -57.5767 -13.8159 59.0694
lradius 50.9673 -0 0
lwrist 20.9457 0 0
lhand -22.984 -3.88573 -0.00196002
lfingers 7.12502 -0 0
lthumb 3.45856 26.0653 -0.0019441
rclavicle -5.01635e-14 -3.61647e-14 -1.95419e-30
rhumerus 33.1886 21.686 -52.16
rradius 90.6825 -0 0
rwrist -5.8006 0 0
rhand -29.209 -29.244 0.0466666
rfingers 7.12502 -0 0
rthumb -2.55358 -59.2018 0.0450384
748
root 4.10098 17.9821 13.5863 -163.801 -10.3207 -169.531
lfemur -23.9326 -8.51999 -6.52271
ltibia 27.3152 -0 0
lfoot -8.8732 -6.26851 -0.432619
ltoes 12.9181 -0 0
rfemur -25.3051 -28.8961 0.0678729
rtibia 112.128 -0 0
rfoot 21.7441 3.48905 1.75737
rtoes 18.6337 -0 0
lowerback 1.08689 7.29707 0.869972
upperback -2.19143 9.73351 -1.31547
thorax -2.4894 4.82668 -2.11808
lowerneck -7.45344 -7.64962 -0.993799
upperneck -1.88988 -10.2411 3.351
head 0.878921 -5.11873 0.87713
lclavicle -4.86652e-14 -3.51993e-14 -2.36225e-30
lhumerus -57.5482 -13.7453 60.0272
lradius 51.4922 -0 0
lwrist 20.7315 0 0
lhand -22.9385 -3.91767 -0.00236932
lfingers 7.12502 -0 0
lthumb 3.50243 26.0325 -0.00235007
rclavicle -4.86652e-14 -3.51993e-14 -2.36225e-30
rhumerus 32.2184 22.9149 -53.0203
rradius 90.4004 -0 0
rwrist -5.48765 0 0
rhand -29.0677 -29 0.0564149
rfingers 7.12502 -0 0
rthumb -2.41707 -58.9581 0.0544466
749
root 4.02751 17.9335 13.734 -163.639 -7.02002 -169.393
lfemur -24.2761 -7.84866 -6.68253
ltibia 28.0023 -0 0
lfoot -9.25827 -5.47092 -0.508644
ltoes 13.0145 -0 0
rfemur -25.0479 -28.6701 0.705197
rtibia 110.342 -0 0
rfoot 20.5843 2.44327 2.06882
rtoes 17.3316 -0 0
lowerback 1.08746 7.21937 0.817179
upperback -2.15517 9.62848 -1.38889
thorax -2.45275 4.77565 -2.15975
lowerneck -7.3904 -7.61976 -0.98503
upperneck -1.90847 -10.197 3.40433
head 0.864151 -5.09458 0.896236
lclavicle -4.70421e-14 -3.41536e-14 -2.77581e-30
lhumerus -57.5159 -13.6694 61.0646
lradius 52.061 -0 0
lwrist 20.4995 0 0
lhand -22.8893 -3.95226 -0.00278413
lfingers 7.12502 -0 0
lthumb 3.54995 25.9969 -0.00276151
rclavicle -4.70421e-14 -3.41536e-14 -2.77581e-30
rhumerus 31.1345 24.2306 -53.987
rradius 90.0949 -0 0
rwrist -5.14864 0 0
rhand -28.9145 -28.7358 0.066296
rfingers 7.12502 -0 0
rthumb -2.26914 -58.694 0.0639828
750
root 3.94887 17.8815 13.8922 -163.457 -3.48808 -169.235
lfemur -24.6452 -7.13128 -6.85779
ltibia 28.7376 -0 0
lfoot -9.67151 -4.61678 -0.584058
ltoes 13.1176 -0 0
rfemur -24.7701 -28.431 1.38702
rtibia 108.432 -0 0
rfoot 19.3366 1.31709 2.37855
rtoes 15.9381 -0 0
lowerback 1.08815 7.13621 0.760689
upperback -2.11622 9.51612 -1.46751
thorax -2.41349 4.72107 -2.20438
lowerneck -7.32294 -7.58781 -0.975611
upperneck -1.92832 -10.1498 3.46138
head 0.848354 -5.06872 0.916675
lclavicle -4.53052e-14 -3.30343e-14 -3.18558e-30
lhumerus -57.4798 -13.5889 62.1745
lradius 52.6696 -0 0
lwrist 20.2512 0 0
lhand -22.8367 -3.98928 -0.00319516
lfingers 7.12502 -0 0
lthumb 3.60081 25.9589 -0.0031692
rclavicle -4.53052e-14 -3.30343e-14 -3.18558e-30
rhumerus 29.9346 25.6194 -55.0634
rradius 89.7679 -0 0
rwrist -4.78583 0 0
rhand -28.7506 -28.4529 0.0760881
rfingers 7.12502 -0 0
rthumb -2.11079 -58.4114 0.0734331
